<svg xmlns="http://www.w3.org/2000/svg" viewBox="0 0 143.47 101.25"><title>bitsaxis-epmb-law-office-white-iso</title><path d="M19.34,78.79h1V86.6h4.91v.91h-5.9Z" fill="#fff"/><path d="M33,78.73h1l4,8.78H36.87l-1-2.3H31.1l-1,2.3h-1Zm2.43,5.59-2-4.44-2,4.44Z" fill="#fff"/><path d="M40.59,78.79h1.08l2.49,7.27,2.39-7.29h.81l2.39,7.29,2.49-7.27h1l-3.12,8.79h-.83L46.9,80.5l-2.41,7.08h-.82Z" fill="#fff"/><path d="M63.9,83.18h0a4.45,4.45,0,1,1,8.9,0h0a4.42,4.42,0,0,1-4.33,4.51h-.14a4.37,4.37,0,0,1-4.43-4.31Zm7.87,0h0a3.46,3.46,0,0,0-3.32-3.6h-.12A3.43,3.43,0,0,0,64.92,83v.13h0a3.47,3.47,0,0,0,3.34,3.6h.1a3.41,3.41,0,0,0,3.41-3.43Z" fill="#fff"/><path d="M77.62,78.79h6.27v.91H78.6v3.12h4.73v.89H78.6v3.8h-1Z" fill="#fff"/><path d="M88.54,78.79H94.8v.91H89.52v3.12h4.72v.89H89.52v3.8h-1Z" fill="#fff"/><path d="M99.54,78.79h1v8.72h-1Z" fill="#fff"/><path d="M105.44,83.18h0a4.4,4.4,0,0,1,4.29-4.51h.12a4.45,4.45,0,0,1,3.4,1.39l-.67.72a3.82,3.82,0,0,0-2.75-1.2,3.41,3.41,0,0,0-3.37,3.47v.11h0a3.44,3.44,0,0,0,3.26,3.6h.11a3.8,3.8,0,0,0,2.82-1.25l.65.63a4.52,4.52,0,0,1-3.49,1.53,4.34,4.34,0,0,1-4.37-4.31Z" fill="#fff"/><path d="M117.76,78.79h6.31v.9h-5.32v3h4.76v.89h-4.76v3.06h5.38v.89h-6.37Z" fill="#fff"/><path d="M14.66,24.37v-.94H30.43V34.28h-.88C28.79,25.9,19.82,24.61,14.66,24.37Z" fill="#fff"/><path d="M10.5,64.71H0v-.88c2.46,0,3.22-2.58,3.22-6.56V30.59c0-3.64-.64-6.28-3.22-6.28v-.88H10.5Z" fill="#fff"/><path d="M14.66,44.42V43.31c2.75-.18,7-1,7.62-5.92h.88v12.9h-.88C21.7,45.42,17.41,44.6,14.66,44.42Z" fill="#fff"/><path d="M31.19,64.71H14.66v-.94c5.22-.29,14.19-1.75,15.65-11.55h.88Z" fill="#fff"/><path d="M48.47,56.68c0,6.86,3.22,7.15,6.33,7.15v.88H37.45v-.88c2.63,0,3.87-2.28,3.87-7.09V30.41c0-3.81-1.24-6.1-4-6.1v-.88H48.47Z" fill="#fff"/><path d="M52.57,24.31v-.82C62.78,23.73,69.7,26,69.7,35.28S62.78,46.77,52.57,47.06v-.88c5.22-.23,9.15-1.64,9.15-10.9S57.73,24.55,52.57,24.31Z" fill="#fff"/><path d="M86.88,63.83v.88H69.7v-.88c8,0,8.5-10.55,8.5-13.83h.88C79.08,53.4,79.55,63.83,86.88,63.83Z" fill="#fff"/><path d="M84.88,23.43,100,55.86l-3.63,9.38H95.5l-17.3-37a7.18,7.18,0,0,0-6.57-3.93v-.88Z" fill="#fff"/><path d="M123,63.83v.88H107v-.88c2.46,0,4.22-1.7,4.22-6.1V23.43H123v.88c-2.52,0-4.52,1.41-4.52,5.16V57.73C118.42,62.13,120.43,63.83,123,63.83Z" fill="#fff"/><path d="M127.11,64.71v-.88c4.69-.11,8.8-.94,8.8-9.91,0-8.5-4.81-9.55-8.8-9.67v-.94c3.17-.35,6.39-2.23,6.39-10,0-7.27-3.45-8.68-6.39-9v-.94c7.33.12,13.61.82,13.61,10,0,9-9,10.15-10.15,10.15,3.81,0,12.9.7,12.9,10.67C143.47,63.83,136.38,64.65,127.11,64.71Z" fill="#fff"/><path d="M42.67.08h3.78v.8H43.57V2.21h2.55V3H43.57V4.37h2.91v.8H42.67Z" fill="#fff"/><path d="M48.79,4.43l.54-.64a2.31,2.31,0,0,0,1.6.66c.56,0,.91-.25.91-.64h0c0-.36-.21-.57-1.15-.78S49,2.45,49,1.5h0A1.57,1.57,0,0,1,50.62,0h.11a2.76,2.76,0,0,1,1.85.64l-.48.68A2.29,2.29,0,0,0,50.72.8c-.53,0-.83.26-.83.61h0c0,.4.23.57,1.2.8s1.64.66,1.64,1.49h0c0,1-.75,1.52-1.82,1.52A3.14,3.14,0,0,1,48.79,4.43Z" fill="#fff"/><path d="M56.52.91H54.91V.08H59V.91H57.42V5.17h-.9Z" fill="#fff"/><path d="M67.83,1.12l-1.65.51-.24-.8L68.08.1h.72V8.88h-1Z" fill="#fff"/><path d="M73.78,8l.58-.76a3.11,3.11,0,0,0,2.14.93c1.57,0,2.63-1.59,2.59-3.82a3,3,0,0,1-5.46-1.14,1,1,0,0,0,0-.17V3a3,3,0,0,1,3-3h.14A3.07,3.07,0,0,1,79,.91a4.34,4.34,0,0,1,1.1,3.37h0C80.1,7.06,78.63,9,76.48,9A4.07,4.07,0,0,1,73.78,8ZM78.9,2.89h0a2.05,2.05,0,0,0-2.09-2h-.12a2,2,0,0,0-2.09,1.9.76.76,0,0,0,0,.15h0a2,2,0,0,0,2.09,1.91h.06A2,2,0,0,0,78.9,3Z" fill="#fff"/><path d="M84.2,7.65l.65-.71a3.6,3.6,0,0,0,2.48,1.19,2,2,0,0,0,2.11-1.89v0h0a1.91,1.91,0,0,0-2-1.84h-.16a3.69,3.69,0,0,0-1.83.49l-.66-.43L85,.16h5v.91H85.88L85.7,3.86a3.7,3.7,0,0,1,1.72-.39,2.73,2.73,0,0,1,3,2.45,1.55,1.55,0,0,1,0,.22h0A2.85,2.85,0,0,1,87.61,9h-.29A4.46,4.46,0,0,1,84.2,7.65Z" fill="#fff"/><path d="M94.57,7.65l.65-.71A3.6,3.6,0,0,0,97.7,8.13a2,2,0,0,0,2.1-1.77V6.2h0a1.91,1.91,0,0,0-2-1.84h-.15a3.75,3.75,0,0,0-1.84.49l-.66-.43L95.39.16h5v.91H96.25l-.18,2.79a3.7,3.7,0,0,1,1.72-.39,2.73,2.73,0,0,1,3,2.45,1.55,1.55,0,0,1,0,.22h0A2.85,2.85,0,0,1,98,9h-.29A4.46,4.46,0,0,1,94.57,7.65Z" fill="#fff"/><rect x="42.67" y="8.05" width="16.37" height="0.83" fill="#fff"/><path d="M29.63,95h.7v6.2h-.7Z" fill="#fff"/><path d="M33.68,100.25l.44-.52a2.91,2.91,0,0,0,2.12.88c.83,0,1.38-.44,1.38-1v0c0-.58-.31-.91-1.61-1.18s-2.08-.77-2.08-1.79h0a1.83,1.83,0,0,1,2-1.7,3.21,3.21,0,0,1,2.18.77l-.4.54A2.75,2.75,0,0,0,36,95.49c-.81,0-1.32.45-1.32,1v0c0,.58.32.91,1.68,1.2s2,.81,2,1.76h0c0,1.07-.89,1.76-2.12,1.76A3.64,3.64,0,0,1,33.68,100.25Z" fill="#fff"/><path d="M41.42,98.07v0a3.16,3.16,0,1,1,6.32,0v0a3.16,3.16,0,1,1-6.32,0Zm5.59,0v0a2.43,2.43,0,1,0-4.86,0v0a2.46,2.46,0,0,0,2.44,2.56A2.43,2.43,0,0,0,47,98.07Z" fill="#fff"/><path d="M55.58,100.49,56,100a2.2,2.2,0,0,0,1.52.67c1.12,0,1.87-1.14,1.84-2.72A2.12,2.12,0,0,1,55.44,97v0a2.11,2.11,0,0,1,2.23-2.1,2.22,2.22,0,0,1,1.63.63,3.14,3.14,0,0,1,.77,2.4v0c0,2-1,3.35-2.58,3.35A2.84,2.84,0,0,1,55.58,100.49Zm3.64-3.6v0a1.46,1.46,0,0,0-1.58-1.4,1.42,1.42,0,0,0-1.48,1.45v0a1.39,1.39,0,0,0,1.52,1.35A1.45,1.45,0,0,0,59.22,96.89Z" fill="#fff"/><path d="M63.1,98.07v0c0-1.73,1-3.2,2.63-3.2s2.6,1.45,2.6,3.18v0c0,1.73-1,3.2-2.62,3.2S63.1,99.8,63.1,98.07Zm4.51,0v0c0-1.35-.75-2.57-1.9-2.57S63.83,96.67,63.83,98v0c0,1.35.74,2.57,1.9,2.57S67.61,99.42,67.61,98.07Z" fill="#fff"/><path d="M71.37,98.07v0c0-1.73,1-3.2,2.63-3.2S76.6,96.3,76.6,98v0c0,1.73-1,3.2-2.62,3.2S71.37,99.8,71.37,98.07Zm4.51,0v0c0-1.35-.75-2.57-1.9-2.57S72.1,96.67,72.1,98v0c0,1.35.74,2.57,1.9,2.57S75.88,99.42,75.88,98.07Z" fill="#fff"/><path d="M80.63,95.63,79.46,96l-.16-.57,1.51-.52h.51v6.24h-.69Z" fill="#fff"/><path d="M84.89,96.57h.81v.93h-.81Zm0,3.65h.81v.93h-.81Z" fill="#fff"/><path d="M88.79,100.61l2.24-2c1-.85,1.3-1.33,1.3-1.95a1.19,1.19,0,0,0-1.25-1.19,2,2,0,0,0-1.67,1.07l-.51-.38a2.46,2.46,0,0,1,2.23-1.32,1.79,1.79,0,0,1,1.92,1.76h0c0,.91-.48,1.46-1.56,2.41l-1.66,1.47h3.28v.64H88.79Z" fill="#fff"/><path d="M96.16,98.07v0c0-1.73,1-3.2,2.62-3.2s2.61,1.45,2.61,3.18v0c0,1.73-1,3.2-2.62,3.2S96.16,99.8,96.16,98.07Zm4.5,0v0c0-1.35-.74-2.57-1.89-2.57S96.88,96.67,96.88,98v0c0,1.35.74,2.57,1.9,2.57S100.66,99.42,100.66,98.07Z" fill="#fff"/><path d="M105.42,95.63l-1.17.37-.17-.57,1.51-.52h.52v6.24h-.69Z" fill="#fff"/><path d="M109.41,100.27l.46-.5a2.62,2.62,0,0,0,1.76.85,1.39,1.39,0,0,0,1.5-1.37v0a1.37,1.37,0,0,0-1.54-1.3,2.72,2.72,0,0,0-1.3.35l-.47-.31.18-3h3.56v.65h-3l-.13,2a2.75,2.75,0,0,1,1.22-.27,1.93,1.93,0,0,1,2.14,1.89v0a2,2,0,0,1-2.21,2A3.16,3.16,0,0,1,109.41,100.27Z" fill="#fff"/></svg>