<svg xmlns="http://www.w3.org/2000/svg" viewBox="0 0 523 349"><title>no-thumb-post</title><rect width="523" height="349" fill="#fff"/><path d="M142.77,254.44H145v17.7h11.12v2.06H142.77Z" fill="#873b2d"/><path d="M173.77,254.3h2.09l9,19.9h-2.4L180.15,269H169.4l-2.34,5.22h-2.29ZM179.28,267l-4.49-10.07L170.27,267Z" fill="#873b2d"/><path d="M190.92,254.44h2.42L199,270.9l5.42-16.52h1.83l5.42,16.52,5.65-16.46h2.34l-7.05,19.9h-1.9l-5.42-16-5.44,16H198Z" fill="#873b2d"/><path d="M243.72,264.38v-.06a10.08,10.08,0,1,1,20.15-.06s0,0,0,.06a10.08,10.08,0,1,1-20.15.06Zm17.83,0v-.06a7.85,7.85,0,0,0-7.78-8.16,7.77,7.77,0,0,0-7.74,8.1v.06a7.85,7.85,0,0,0,7.79,8.16C258.34,272.48,261.55,268.86,261.55,264.38Z" fill="#873b2d"/><path d="M274.8,254.44H289v2.06H277v7.06h10.7v2H277v8.61H274.8Z" fill="#873b2d"/><path d="M299.54,254.44h14.2v2.06h-12v7.06h10.7v2h-10.7v8.61h-2.23Z" fill="#873b2d"/><path d="M324.47,254.44h2.23V274.2h-2.23Z" fill="#873b2d"/><path d="M337.82,264.38v-.06a10,10,0,0,1,10-10.22,10.11,10.11,0,0,1,7.7,3.14L354,258.87a8.6,8.6,0,0,0-6.21-2.71c-4.38,0-7.65,3.56-7.65,8.1v.06c0,4.57,3.27,8.16,7.65,8.16a8.6,8.6,0,0,0,6.38-2.85l1.47,1.44a10.26,10.26,0,0,1-7.91,3.47A9.86,9.86,0,0,1,337.82,264.38Z" fill="#873b2d"/><path d="M365.75,254.44H380v2H368v6.75h10.78v2H368v6.92h12.19v2H365.75Z" fill="#873b2d"/><path d="M122.72,220.28H98.94v-2c5.58,0,7.31-5.84,7.31-14.88V143c0-8.24-1.46-14.22-7.31-14.22v-2h23.78Z" fill="#873b2d"/><path d="M132.16,128.88v-2.13h35.73v24.58h-2C164.17,132.33,143.85,129.41,132.16,128.88Z" fill="#873b2d"/><path d="M132.16,174.31v-2.52c6.24-.4,15.94-2.4,17.27-13.42h2v29.22h-2C148.1,176.57,138.4,174.71,132.16,174.31Z" fill="#873b2d"/><path d="M169.62,220.28H132.16v-2.13c11.82-.66,32.15-4,35.47-26.17h2Z" fill="#873b2d"/><path d="M208.76,202.08c0,15.54,7.31,16.2,14.35,16.2v2H183.78v-2c6,0,8.77-5.18,8.77-16.07V142.56c0-8.64-2.79-13.82-9-13.82v-2h25.24Z" fill="#873b2d"/><path d="M218.06,128.74v-1.86c23.11.54,38.79,5.58,38.79,26.71s-15.68,26-38.79,26.7v-2c11.82-.54,20.72-3.72,20.72-24.71C238.78,132.33,229.75,129.28,218.06,128.74Z" fill="#873b2d"/><path d="M295.77,218.28v2H256.85v-2c18.07,0,19.26-23.91,19.26-31.35h2C278.1,194.64,279.17,218.28,295.77,218.28Z" fill="#873b2d"/><path d="M291.26,126.75l34.27,73.47-8.24,21.25h-2l-39.19-83.83c-5.05-8.63-11.56-8.63-14.88-8.9v-2Z" fill="#873b2d"/><path d="M377.5,218.28v2H341.34v-2c5.58,0,9.56-3.85,9.56-13.81V126.75h26.57v2c-5.71,0-10.23,3.19-10.23,11.69v64C367.24,214.43,371.79,218.28,377.5,218.28Z" fill="#873b2d"/><path d="M386.94,220.28v-2c10.62-.26,19.92-2.12,19.92-22.45,0-19.26-10.89-21.65-19.92-21.92v-2.12c7.17-.8,14.48-5,14.48-22.59,0-16.47-7.84-19.66-14.48-20.32v-2.13c16.6.27,30.82,1.86,30.82,22.59,0,20.32-20.33,23-23,23,8.64,0,29.23,1.59,29.23,24.18C424,218.28,407.93,220.14,386.94,220.28Z" fill="#873b2d"/><path d="M195.62,73.85h8.55v1.81h-6.52v3h5.78v1.81h-5.78v3.1h6.61v1.81h-8.64Z" fill="#873b2d"/><path d="M209.48,83.7l1.22-1.45a5.24,5.24,0,0,0,3.64,1.5c1.25,0,2-.57,2-1.45v0c0-.81-.47-1.29-2.61-1.76-2.45-.61-3.84-1.31-3.84-3.45v0c0-2,1.65-3.35,3.94-3.35a6.4,6.4,0,0,1,4.19,1.45L217,76.66a5.32,5.32,0,0,0-3.13-1.18c-1.19,0-1.88.59-1.88,1.37v0c0,.91.53,1.28,2.73,1.81,2.46.56,3.71,1.49,3.71,3.38v0c0,2.18-1.69,3.45-4.12,3.45A7,7,0,0,1,209.48,83.7Z" fill="#873b2d"/><path d="M227,75.73h-3.66V73.85h9.36v1.88H229v9.65h-2Z" fill="#873b2d"/><path d="M252.61,76.2l-3.72,1.15-.54-1.8,4.83-1.67h1.64v19.9h-2.21Z" fill="#873b2d"/><path d="M266.11,91.69l1.3-1.72a7,7,0,0,0,4.85,2.12c3.56,0,6-3.61,5.88-8.67a6.37,6.37,0,0,1-5.59,3.17c-4.07,0-6.89-2.57-6.89-6.13V80.4c0-3.75,2.91-6.72,7.11-6.72a7,7,0,0,1,5.2,2c1.49,1.49,2.45,3.69,2.45,7.65v0c0,6.24-3.33,10.7-8.21,10.7A9.14,9.14,0,0,1,266.11,91.69Zm11.6-11.49v0c0-2.49-2.06-4.49-5-4.49A4.54,4.54,0,0,0,268,80.29v.06c0,2.51,2,4.32,4.85,4.32A4.63,4.63,0,0,0,277.71,80.2Z" fill="#873b2d"/><path d="M289.71,91l1.47-1.61a8.12,8.12,0,0,0,5.62,2.71c2.82,0,4.77-1.86,4.77-4.38v0c0-2.49-2.06-4.15-4.91-4.15a8.16,8.16,0,0,0-4.15,1.13l-1.5-1,.57-9.63H303v2.06h-9.42l-.43,6.33a8.42,8.42,0,0,1,3.9-.88c3.84,0,6.83,2.29,6.83,6v.06c0,3.87-2.91,6.49-7.06,6.49A10,10,0,0,1,289.71,91Z" fill="#873b2d"/><path d="M313.21,91l1.47-1.61a8.1,8.1,0,0,0,5.61,2.71c2.83,0,4.77-1.86,4.77-4.38v0c0-2.49-2.06-4.15-4.91-4.15A8.16,8.16,0,0,0,316,84.64l-1.49-1,.56-9.63h11.38v2.06H317l-.42,6.33a8.37,8.37,0,0,1,3.89-.88c3.84,0,6.83,2.29,6.83,6v.06c0,3.87-2.91,6.49-7.06,6.49A10,10,0,0,1,313.21,91Z" fill="#873b2d"/><rect x="195.62" y="91.91" width="37.08" height="1.88" fill="#873b2d"/></svg>